<svg width="70" height="70" viewBox="0 0 70 70" fill="none" xmlns="http://www.w3.org/2000/svg">
<rect width="70" height="70" rx="15" fill="#FF7642"/>
<path d="M50.9058 17H19.0953C17.9402 17 17 17.9402 17 19.0953V50.9047C17 52.0598 17.9402 53 19.0953 53H50.9047C52.0598 53 52.9992 52.0598 52.9992 50.9047L52.9996 19.0953C52.9996 17.9402 52.0602 17 50.9051 17H50.9058ZM19.0953 18.4398H50.9047C51.2656 18.4398 51.5594 18.7337 51.5594 19.0953L51.5598 24.0201H18.4399V19.0953C18.4399 18.734 18.7341 18.4398 19.0953 18.4398H19.0953ZM50.9058 51.5597H19.0953C18.734 51.5597 18.4398 51.2659 18.4398 50.9043V25.4602H51.5597V50.9053C51.5597 51.2666 51.2655 51.5604 50.9051 51.5604L50.9058 51.5597Z" fill="white"/>
<path d="M39.8742 34.7009C39.593 34.4197 39.1375 34.4197 38.8559 34.7009C38.5747 34.9821 38.5747 35.4376 38.8559 35.7191L41.6472 38.5097L38.8559 41.3002C38.5747 41.5814 38.5747 42.0373 38.8559 42.3185C38.9967 42.4593 39.1809 42.5295 39.365 42.5295C39.5492 42.5295 39.7334 42.4593 39.8742 42.3185L43.1745 39.0188C43.3094 38.8839 43.3855 38.7009 43.3855 38.5097C43.3855 38.3184 43.3094 38.1354 43.1745 38.0006L39.8742 34.7009Z" fill="white"/>
<path d="M31.1436 34.7006C30.8624 34.4194 30.4065 34.4194 30.1253 34.7006L26.8256 38.0003C26.5444 38.2815 26.5444 38.7374 26.8256 39.0186L30.1253 42.3182C30.2661 42.459 30.4503 42.5292 30.6344 42.5292C30.8186 42.5292 31.0028 42.459 31.1436 42.3182C31.4247 42.037 31.4247 41.5812 31.1436 41.3L28.353 38.5094L31.1436 35.7189C31.4251 35.4377 31.4251 34.9818 31.1436 34.7006Z" fill="white"/>
<path d="M36.3539 31.2621C35.9568 31.1919 35.5861 31.4478 35.5136 31.8378L33.0701 44.9168C32.9975 45.3076 33.2551 45.6838 33.6459 45.7572C33.6908 45.7651 33.735 45.769 33.7788 45.769C34.1191 45.769 34.4216 45.5273 34.4863 45.181L36.9297 32.1021C37.0023 31.7112 36.7448 31.335 36.3539 31.2621Z" fill="white"/>
<path d="M21.6051 22.4304C22.003 22.4304 22.3252 22.1082 22.3252 21.7103V20.7496C22.3252 20.3517 22.003 20.0295 21.6051 20.0295C21.2072 20.0295 20.885 20.3517 20.885 20.7496V21.7099C20.8854 22.1082 21.2072 22.4304 21.6051 22.4304Z" fill="white"/>
<path d="M24.455 22.4304C24.8529 22.4304 25.1751 22.1082 25.1751 21.7103V20.7496C25.1751 20.3517 24.8529 20.0295 24.455 20.0295C24.0571 20.0295 23.7349 20.3517 23.7349 20.7496V21.7099C23.7353 22.1082 24.0571 22.4304 24.455 22.4304Z" fill="white"/>
<path d="M27.305 22.4304C27.7029 22.4304 28.0251 22.1082 28.0251 21.7103L28.0247 20.7496C28.0247 20.3517 27.7025 20.0295 27.3046 20.0295C26.9067 20.0295 26.5845 20.3517 26.5845 20.7496V21.7099C26.5849 22.1082 26.9067 22.4304 27.305 22.4304Z" fill="white"/>
<path d="M35.2999 21.95H48.3951C48.793 21.95 49.1152 21.6278 49.1152 21.2299C49.1152 20.832 48.793 20.5098 48.3951 20.5098H35.2999C34.902 20.5098 34.5798 20.832 34.5798 21.2299C34.5802 21.6278 34.902 21.95 35.2999 21.95Z" fill="white"/>
</svg>
