<svg width="70" height="70" viewBox="0 0 70 70" fill="none" xmlns="http://www.w3.org/2000/svg">
<rect width="70" height="70" rx="20" fill="#FDBE3B"/>
<path d="M51.827 31.7179C48.9414 26.1938 43.2811 22.834 37.2475 22.501C37.0155 22.4859 37.0003 22.4102 37.2122 22.3194L42.711 19.9635C42.9229 19.8727 43.2004 19.9635 43.3668 20.1199C43.8764 20.5941 44.6835 20.7858 45.3848 20.4932C46.3332 20.0947 46.7771 19 46.3786 18.102C45.9296 17.1536 44.8349 16.755 43.8865 17.1536C43.1751 17.4462 42.7463 18.1222 42.7716 18.8335C42.7817 19.0655 42.6656 19.3178 42.4487 19.4086L35.5575 22.274C35.3406 22.3648 34.9824 22.4506 34.7503 22.4657C34.3417 22.496 33.9331 22.5364 33.5396 22.6019C33.3126 22.6423 33.0502 22.5111 32.9493 22.2993L32.1573 20.5739C32.0615 20.362 31.8092 20.2662 31.5923 20.357L25.4982 22.9198C25.2863 23.0106 25.1904 23.2527 25.2863 23.4646L26.0228 25.0436C26.1237 25.2555 26.038 25.5229 25.8463 25.654C25.3014 26.0223 24.7869 26.436 24.3127 26.8749C24.1411 27.0313 23.8334 27.2381 23.6215 27.3289L16.8312 30.1439C16.6143 30.2347 16.3368 30.149 16.1603 29.9976C15.6205 29.5284 14.8083 29.367 14.102 29.6596C13.1536 30.0582 12.755 31.1024 13.1536 32.0508C13.5521 32.9488 14.6973 33.3978 15.6457 32.9993C16.3469 32.7117 16.7404 32.0105 16.7404 31.3244C16.7404 31.0923 16.8615 30.835 17.0784 30.7493L22.5268 28.4842C22.7437 28.3934 22.7891 28.459 22.6327 28.6355C18.7583 33.0598 17.4971 39.4263 19.7168 45.1623C19.8026 45.3792 19.7017 45.6264 19.4848 45.7172L18.0167 46.3377C17.8049 46.4285 17.704 46.6757 17.7998 46.8876L20.4433 52.7446C20.5391 52.9565 20.7914 53.0574 21.0033 52.9666L27.0974 50.4038C27.3093 50.313 27.4102 50.0709 27.3143 49.859L24.6708 44.002C24.575 43.7901 24.3227 43.6892 24.1109 43.78L22.1737 44.5821C21.9567 44.6729 21.7146 44.567 21.6339 44.3501C19.3435 38.2105 21.5077 31.4556 26.6787 27.5156C26.8653 27.3743 27.0974 27.4349 27.1983 27.6467L27.9853 29.3267C28.0862 29.5385 28.3384 29.6344 28.5503 29.5436L34.599 26.9808C34.8109 26.89 34.9118 26.6428 34.821 26.4309L34.1551 24.8671C34.0642 24.6552 34.1752 24.4534 34.4073 24.4282C40.6628 23.737 47.0243 26.8143 50.031 32.4746C50.142 32.6814 50.0512 32.9236 49.8343 33.0144L47.8214 33.8771C47.6095 33.9679 47.5137 34.2151 47.6095 34.4269L50.253 40.284C50.3489 40.4958 50.6011 40.5967 50.813 40.5059L56.9071 37.9432C57.119 37.8524 57.2199 37.6102 57.124 37.3983L54.4805 31.5413C54.3847 31.3294 54.1324 31.2285 53.9206 31.3193L52.4071 31.9449C52.1902 32.0206 51.9329 31.9247 51.827 31.7179Z" fill="white"/>
</svg>
