<svg width="180" height="37" viewBox="0 0 180 37" fill="none" xmlns="http://www.w3.org/2000/svg">
<path d="M0 36.8512L14.6877 3.69669C14.7462 3.756 14.8867 3.9102 14.9803 4.05255C18.07 12.5458 15.1363 20.6397 13.2833 23.625H18.9544C20.9252 23.625 23.2823 24.1395 23.7605 26.0513C24.3193 28.2858 21.9281 29.9119 21.5342 29.9119H19.0764C11.4927 29.8644 8.19234 34.5183 7.49014 36.8512H0Z" fill="#14D7D2"/>
<path d="M30.8385 32.8774C30.464 32.0708 21.2418 10.7151 16.6775 0.138097H17.0871C22.3536 -0.632938 24.2847 2.03603 25.1624 2.92568C26.0402 4.34913 38.7968 33.3519 40.2597 36.9105C32.6526 37.6222 31.3067 33.8857 30.8385 32.8774Z" fill="#14D7D2"/>
<path d="M29.6091 3.40021C29.1878 1.92931 28.1852 0.533539 27.7366 0.019516C31.6962 0.019516 40.2943 0.0669643 43.0094 0.256757C50.6166 1.14641 54.3032 6.7809 55.9416 9.6871C61.3837 24.3961 52.3721 32.0471 52.138 32.3437C51.904 32.6402 50.4996 33.7671 47.8663 35.2499C44.2968 36.8512 42.8339 33.4706 42.7169 33.174C42.5998 32.8774 42.4243 32.3437 41.4295 30.0899C49.9144 28.8443 50.7922 21.134 50.7922 19.5326C50.8507 8.85676 44.2383 7.49262 43.3605 7.19607C41.7221 6.30641 36.397 6.60296 34.9341 6.60296C30.955 6.00986 30.1943 4.17124 29.6091 3.40021Z" fill="#14D7D2"/>
<path d="M64.9866 36.5675L76.0958 7.55531H80.1019L91.2745 36.5675H87.1627L84.2137 28.8109H71.9629L69.0772 36.5675H64.9866ZM72.9882 25.704H83.0932C81.4302 20.9401 79.7531 16.2047 78.0618 11.4979C76.3565 16.2761 74.6653 21.0115 72.9882 25.704Z" fill="white"/>
<path d="M103.113 36.996C101.865 37.0334 100.625 36.7939 99.478 36.2942C98.3313 35.7946 97.3063 35.0468 96.4748 34.1034C94.6796 31.9617 93.7573 29.2071 93.8957 26.4004C93.8475 24.4878 94.2081 22.5873 94.9527 20.8293C95.6473 19.2632 96.779 17.9373 98.2083 17.0153C99.7222 16.0499 101.483 15.558 103.271 15.6011C104.693 15.5713 106.094 15.9422 107.32 16.6725C108.352 17.2515 109.188 18.1327 109.719 19.2009V6.96603H113.355V31.2643C113.355 32.4856 113.355 34.2534 113.493 36.5675H109.814L109.73 33.0963C109.257 34.244 108.435 35.2086 107.383 35.8497C106.101 36.646 104.616 37.0445 103.113 36.996V36.996ZM103.641 34.0177C104.518 34.062 105.393 33.8901 106.19 33.517C106.987 33.1438 107.683 32.5804 108.218 31.875C109.37 30.2036 109.94 28.1902 109.835 26.154C109.92 24.1949 109.346 22.2647 108.208 20.6793C107.68 19.9846 106.996 19.4277 106.212 19.055C105.429 18.6823 104.569 18.5046 103.705 18.5366C102.845 18.4989 101.99 18.6743 101.212 19.0477C100.435 19.4211 99.7595 19.9812 99.2442 20.6793C98.111 22.3187 97.5493 24.2941 97.6481 26.2932C97.5512 28.2725 98.097 30.2294 99.2019 31.8643C99.7082 32.5582 100.375 33.1156 101.143 33.4873C101.912 33.8591 102.759 34.0338 103.61 33.9963L103.641 34.0177Z" fill="white"/>
<path d="M120.099 36.5675V16.1261H123.704V36.5675H120.099ZM120.099 10.9622V7.55531H123.683V10.9622H120.099Z" fill="white"/>
<path d="M180 36.5675H178.33C175.476 36.5675 173.521 36.0497 172.464 35.0141C171.407 33.9427 170.889 32.1643 170.889 29.4859V18.5688H167.01V16.1261H170.963V10.8658L174.504 9.79442V16.1154H179.969V18.5688H174.504V29.7109C174.489 30.3074 174.538 30.9038 174.652 31.4893C174.735 31.8857 174.889 32.2633 175.106 32.6035C175.353 32.945 175.707 33.1907 176.11 33.2999C176.617 33.4509 177.138 33.5514 177.664 33.5999C178.441 33.673 179.22 33.7052 180 33.6963V36.5675Z" fill="white"/>
<path d="M150.1 36.9961C148.687 37.0201 147.286 36.7275 145.998 36.139C144.829 35.6132 143.794 34.8213 142.975 33.8248C142.181 32.8162 141.576 31.6688 141.189 30.4394C140.752 29.1208 140.534 27.7378 140.544 26.3468C140.528 24.4964 140.922 22.6659 141.696 20.99C142.437 19.4075 143.597 18.0648 145.047 17.1118C146.567 16.1281 148.339 15.6212 150.142 15.6547C151.514 15.6426 152.864 16.0132 154.042 16.7261C155.155 17.3696 156.075 18.3061 156.706 19.4366V16.2225H160.215V36.5675H156.621V33.0749C156.063 34.2738 155.165 35.2771 154.042 35.9568C152.849 36.6672 151.483 37.027 150.1 36.9961V36.9961ZM150.607 34.0177C151.486 34.0665 152.363 33.8968 153.163 33.5233C153.963 33.1499 154.66 32.584 155.194 31.875C156.326 30.199 156.883 28.1928 156.78 26.1647C156.87 24.1999 156.3 22.2623 155.163 20.6686C154.622 19.9636 153.922 19.4008 153.122 19.0278C152.322 18.6548 151.444 18.4827 150.565 18.5259C149.658 18.4727 148.751 18.6393 147.92 19.0119C147.089 19.3846 146.358 19.9525 145.787 20.6686C144.628 22.2694 144.046 24.2244 144.138 26.2075C144.042 28.2244 144.623 30.2148 145.787 31.8536C146.364 32.5738 147.103 33.144 147.941 33.5167C148.779 33.8894 149.693 34.0538 150.607 33.9963V34.0177Z" fill="white"/>
<path d="M130.505 36.5675V6.96603H134.12V36.5675H130.505Z" fill="white"/>
</svg>
